<svg width="32" height="32" viewBox="0 0 32 32" fill="none" xmlns="http://www.w3.org/2000/svg">
<path d="M30.3995 14.1223C30.3466 13.5846 30.2584 12.9675 30.0821 12.2799C29.9058 11.6011 29.6413 10.8518 29.2534 10.076C28.8656 9.30028 28.3631 8.49807 27.7107 7.7135C27.4551 7.40496 27.173 7.10523 26.8733 6.81433C27.3229 5.02479 26.3267 3.47328 26.3267 3.47328C24.6077 3.36749 23.5146 4.01102 23.1091 4.30193C23.0386 4.27548 22.9769 4.24022 22.9063 4.21377C22.6154 4.09917 22.3157 3.98457 21.9983 3.8876C21.6898 3.79063 21.3725 3.70248 21.0463 3.62314C20.7201 3.5438 20.3939 3.48209 20.059 3.4292C19.9972 3.42039 19.9444 3.41157 19.8826 3.40275C19.1333 1.00496 16.9824 0 16.9824 0C14.5758 1.52507 14.1262 3.6584 14.1262 3.6584C14.1262 3.6584 14.1174 3.70248 14.0997 3.78182C13.9675 3.81708 13.8353 3.86116 13.703 3.89642C13.5179 3.94931 13.3328 4.01983 13.1565 4.09036C12.9713 4.16088 12.795 4.2314 12.6099 4.31074C12.2485 4.46942 11.8871 4.64573 11.5344 4.83967C11.1906 5.03361 10.8556 5.24518 10.5295 5.46556C10.4854 5.44793 10.4413 5.4303 10.4413 5.4303C7.10909 4.16088 4.15592 5.68595 4.15592 5.68595C3.88264 9.22975 5.48705 11.4601 5.80441 11.8656C5.72507 12.086 5.65455 12.3063 5.58402 12.5267C5.33719 13.3289 5.15207 14.1488 5.03747 15.0039C5.01983 15.1273 5.0022 15.2507 4.99339 15.3741C1.90799 16.8992 1 20.011 1 20.011C3.56529 22.9642 6.56253 23.1493 6.56253 23.1493L6.57135 23.1405C6.95041 23.8193 7.39118 24.4628 7.88485 25.0711C8.09642 25.3267 8.30799 25.5647 8.53719 25.8028C7.60275 28.4826 8.66942 30.7041 8.66942 30.7041C11.5256 30.8099 13.4033 29.4523 13.8 29.1438C14.0821 29.2408 14.373 29.3289 14.6639 29.3995C15.5455 29.6287 16.4446 29.7609 17.3438 29.7961C17.5642 29.805 17.7934 29.8138 18.0138 29.805H18.1196H18.1901H18.3311L18.4722 29.7961V29.805C19.8209 31.7267 22.1835 32 22.1835 32C23.8672 30.2281 23.9642 28.465 23.9642 28.086C23.9642 28.086 23.9642 28.0771 23.9642 28.0595C23.9642 28.0242 23.9642 28.0066 23.9642 28.0066C23.9642 27.9802 23.9642 27.9537 23.9642 27.9273C24.3168 27.6804 24.6518 27.416 24.9691 27.1251C25.6391 26.5168 26.2298 25.8204 26.7234 25.0711C26.7675 25.0006 26.8116 24.93 26.8556 24.8595C28.7598 24.9653 30.1085 23.6782 30.1085 23.6782C29.7912 21.6948 28.6628 20.7251 28.4248 20.5399C28.4248 20.5399 28.416 20.5311 28.3983 20.5223C28.3807 20.5135 28.3807 20.5047 28.3807 20.5047C28.3719 20.4959 28.3543 20.4871 28.3366 20.4782C28.3455 20.3548 28.3543 20.2402 28.3631 20.1168C28.3807 19.9052 28.3807 19.6848 28.3807 19.4733V19.3146V19.2353V19.1912C28.3807 19.1383 28.3807 19.1559 28.3807 19.1383L28.3719 19.0061L28.3631 18.8298C28.3631 18.768 28.3543 18.7152 28.3455 18.6623C28.3366 18.6094 28.3366 18.5477 28.3278 18.4948L28.3102 18.3273L28.2837 18.1598C28.2485 17.9394 28.2132 17.7278 28.1603 17.5074C27.9576 16.6523 27.6226 15.8413 27.1906 15.1096C26.7499 14.378 26.2033 13.7344 25.5774 13.1879C24.9603 12.6413 24.2639 12.2006 23.541 11.8744C22.8094 11.5482 22.0512 11.3366 21.2931 11.2397C20.9141 11.1868 20.535 11.1691 20.1559 11.178H20.0149H19.9796C19.9708 11.178 19.9267 11.178 19.9355 11.178H19.8738L19.7328 11.1868C19.6799 11.1868 19.627 11.1956 19.5829 11.1956C19.389 11.2132 19.195 11.2397 19.0099 11.2749C18.2518 11.416 17.5377 11.6893 16.9118 12.0683C16.286 12.4474 15.7394 12.9146 15.2986 13.4435C14.8579 13.9725 14.514 14.5631 14.276 15.1714C14.038 15.7796 13.9058 16.4143 13.8705 17.0226C13.8617 17.1725 13.8617 17.3311 13.8617 17.481C13.8617 17.5163 13.8617 17.5603 13.8617 17.5956L13.8705 17.719C13.8793 17.7895 13.8793 17.8689 13.8882 17.9394C13.9146 18.2479 13.9763 18.5477 14.0556 18.8298C14.2231 19.4028 14.4876 19.9229 14.8138 20.3636C15.1399 20.8044 15.5366 21.1658 15.951 21.4567C16.3653 21.7388 16.8149 21.9416 17.2556 22.0738C17.6964 22.2061 18.1372 22.259 18.5515 22.259C18.6044 22.259 18.6573 22.259 18.7014 22.259C18.7278 22.259 18.7543 22.259 18.7807 22.259C18.8072 22.259 18.8336 22.259 18.8601 22.2501C18.9041 22.2501 18.9482 22.2413 18.9923 22.2413C19.0011 22.2413 19.0187 22.2413 19.0275 22.2325L19.0716 22.2237C19.0981 22.2237 19.1245 22.2149 19.151 22.2149C19.2039 22.2061 19.2479 22.1972 19.3008 22.1884C19.3537 22.1796 19.3978 22.1708 19.4419 22.1532C19.5388 22.1355 19.627 22.1003 19.7152 22.0738C19.8915 22.0121 20.0678 21.9416 20.2176 21.8623C20.3763 21.7829 20.5174 21.686 20.6584 21.5978C20.6937 21.5714 20.7377 21.5449 20.773 21.5096C20.914 21.395 20.9405 21.1835 20.8259 21.0424C20.7289 20.919 20.5526 20.8837 20.4116 20.9631C20.3763 20.9807 20.341 20.9983 20.3058 21.016C20.1824 21.0777 20.059 21.1306 19.9267 21.1747C19.7945 21.2187 19.6534 21.254 19.5124 21.2804C19.4419 21.2893 19.3714 21.2981 19.292 21.3069C19.2567 21.3069 19.2215 21.3157 19.1774 21.3157C19.1421 21.3157 19.0981 21.3157 19.0716 21.3157C19.0364 21.3157 19.0011 21.3157 18.9658 21.3157C18.9218 21.3157 18.8777 21.3157 18.8336 21.3069C18.8336 21.3069 18.8072 21.3069 18.8248 21.3069H18.8072H18.7807C18.7631 21.3069 18.7366 21.3069 18.719 21.2981C18.6749 21.2893 18.6397 21.2893 18.5956 21.2804C18.2694 21.2364 17.9433 21.1394 17.6347 20.9983C17.3174 20.8573 17.0176 20.6634 16.7444 20.4165C16.4711 20.1697 16.2331 19.8788 16.0479 19.5438C15.8628 19.2088 15.7306 18.8386 15.6689 18.4507C15.6424 18.2567 15.6248 18.054 15.6336 17.8601C15.6336 17.8072 15.6424 17.7543 15.6424 17.7014C15.6424 17.719 15.6424 17.6926 15.6424 17.6926V17.6749V17.6309C15.6424 17.6044 15.6512 17.578 15.6512 17.5515C15.6601 17.4457 15.6777 17.3399 15.6953 17.2342C15.8452 16.3879 16.2683 15.5592 16.9207 14.9333C17.0882 14.7747 17.2645 14.6336 17.4496 14.5014C17.6347 14.3691 17.8375 14.2545 18.049 14.1576C18.2606 14.0606 18.4722 13.9813 18.7014 13.9196C18.9218 13.8579 19.151 13.8226 19.389 13.7961C19.5036 13.7873 19.6182 13.7785 19.7416 13.7785C19.7769 13.7785 19.7945 13.7785 19.8209 13.7785H19.9179H19.9796C20.0061 13.7785 19.9796 13.7785 19.9884 13.7785H20.0149L20.1118 13.7873C20.3675 13.805 20.6143 13.8402 20.8612 13.9019C21.3548 14.0077 21.8397 14.1928 22.2893 14.4397C23.1884 14.9421 23.9554 15.7179 24.4226 16.6523C24.6606 17.1196 24.8281 17.622 24.9074 18.1421C24.9251 18.2744 24.9427 18.4066 24.9515 18.5388L24.9603 18.6358L24.9691 18.7328C24.9691 18.768 24.9691 18.8033 24.9691 18.8298C24.9691 18.865 24.9691 18.9003 24.9691 18.9267V19.0149V19.1118C24.9691 19.1736 24.9603 19.2793 24.9603 19.341C24.9515 19.4821 24.9339 19.632 24.9163 19.773C24.8986 19.914 24.8722 20.0551 24.8457 20.1961C24.8193 20.3372 24.784 20.4782 24.7488 20.6105C24.6782 20.8837 24.5901 21.157 24.4843 21.4303C24.2727 21.9592 23.9906 22.4705 23.6556 22.9377C22.9769 23.8722 22.0512 24.6303 20.9934 25.1152C20.4645 25.3532 19.9091 25.5295 19.3361 25.6176C19.054 25.6705 18.7631 25.697 18.4722 25.7058H18.4193H18.3752H18.2782H18.1372H18.0667C18.1019 25.7058 18.0579 25.7058 18.0579 25.7058H18.0314C17.8727 25.7058 17.7229 25.697 17.5642 25.6793C16.9471 25.6353 16.3388 25.5207 15.7394 25.3532C15.1488 25.1857 14.5758 24.9477 14.0292 24.6656C12.9449 24.0837 11.9664 23.2904 11.2083 22.3295C10.8292 21.8534 10.4942 21.3333 10.2209 20.7956C9.94766 20.2579 9.72727 19.6848 9.56859 19.1118C9.40992 18.53 9.31295 17.9394 9.26887 17.3399L9.26005 17.2253V17.1989V17.1725V17.1196V17.0226V16.9961V16.9609V16.8904V16.7493V16.7229C9.26005 16.7229 9.26005 16.7317 9.26005 16.7141V16.6612C9.26005 16.5906 9.26005 16.5113 9.26005 16.4408C9.26887 16.1499 9.29532 15.8413 9.33058 15.5416C9.36584 15.2419 9.41873 14.9333 9.48044 14.6336C9.54215 14.3339 9.61267 14.0342 9.70083 13.7344C9.86832 13.1438 10.0799 12.5708 10.3267 12.0331C10.8292 10.9576 11.4815 9.99669 12.2661 9.22975C12.4601 9.03581 12.6628 8.8595 12.8744 8.6832C13.086 8.5157 13.3063 8.35703 13.5355 8.20716C13.7559 8.0573 13.9939 7.92507 14.232 7.80165C14.3466 7.73994 14.47 7.67824 14.5934 7.62534C14.6551 7.5989 14.7168 7.57245 14.7785 7.54601C14.8402 7.51956 14.9019 7.49311 14.9636 7.46667C15.2105 7.36088 15.4661 7.27273 15.7306 7.19339C15.7923 7.17576 15.8628 7.15813 15.9245 7.13168C15.9862 7.11405 16.0567 7.09642 16.1185 7.07879C16.2507 7.04353 16.3829 7.00826 16.5152 6.98182C16.5769 6.96419 16.6474 6.95537 16.7179 6.93774C16.7884 6.92011 16.8501 6.91129 16.9207 6.89366C16.9912 6.88485 17.0529 6.86722 17.1234 6.8584L17.2204 6.84077L17.3262 6.82314C17.3967 6.81433 17.4584 6.80551 17.5289 6.79669C17.6083 6.78788 17.6788 6.77906 17.7581 6.77025C17.8198 6.76143 17.9256 6.75262 17.9873 6.7438C18.0314 6.73499 18.0843 6.73499 18.1284 6.72617L18.2253 6.71736L18.2694 6.70854H18.3223C18.4017 6.69972 18.4722 6.69972 18.5515 6.69091L18.6661 6.68209C18.6661 6.68209 18.7102 6.68209 18.6749 6.68209H18.7014H18.7543C18.816 6.68209 18.8865 6.67328 18.9482 6.67328C19.2039 6.66446 19.4683 6.66446 19.724 6.67328C20.2353 6.69091 20.7377 6.75262 21.2226 6.84077C22.2011 7.0259 23.1179 7.33444 23.9554 7.74876C24.7928 8.15427 25.5333 8.65675 26.1857 9.20331C26.2298 9.23857 26.265 9.27383 26.3091 9.30909C26.3444 9.34435 26.3884 9.37961 26.4237 9.41488C26.503 9.4854 26.5736 9.55592 26.6529 9.62645C26.7322 9.69697 26.8028 9.76749 26.8733 9.83802C26.9438 9.90854 27.0143 9.97906 27.0848 10.0584C27.3581 10.3493 27.6138 10.6402 27.843 10.9399C28.3014 11.5306 28.6716 12.13 28.9625 12.6942C28.9802 12.7295 28.9978 12.7647 29.0154 12.8C29.0331 12.8353 29.0507 12.8705 29.0683 12.9058C29.1036 12.9763 29.1388 13.0468 29.1653 13.1174C29.2006 13.1879 29.227 13.2496 29.2623 13.3201C29.2887 13.3906 29.324 13.4523 29.3504 13.5229C29.4562 13.7873 29.562 14.043 29.6413 14.281C29.7736 14.6689 29.8705 15.0127 29.9499 15.3124C29.9763 15.4358 30.0909 15.5152 30.2143 15.4975C30.3466 15.4887 30.4435 15.3829 30.4435 15.2507C30.4523 14.9333 30.4435 14.5543 30.3995 14.1223Z" fill="url(#paint0_linear)"/>
<defs>
<linearGradient id="paint0_linear" x1="15.7218" y1="-0.061708" x2="15.7218" y2="32" gradientUnits="userSpaceOnUse">
<stop stop-color="#F05A28"/>
<stop offset="1" stop-color="#FBCA0A"/>
</linearGradient>
</defs>
</svg>
